<mxfile host="app.diagrams.net" modified="2023-09-13T08:09:01.221Z" agent="Mozilla/5.0 (Macintosh; Intel Mac OS X 10.15; rv:109.0) Gecko/20100101 Firefox/117.0" etag="lbiAbl1Fx_5IGmlNEluk" version="21.7.4" type="github">
  <diagram name="Page-1" id="F13M3PTqx_8kNUvedSjd">
    <mxGraphModel dx="1434" dy="769" grid="1" gridSize="10" guides="1" tooltips="1" connect="1" arrows="1" fold="1" page="1" pageScale="1" pageWidth="827" pageHeight="1169" math="0" shadow="0">
      <root>
        <mxCell id="0" />
        <mxCell id="1" parent="0" />
        <mxCell id="RuO9l1L-OgYIJ2cfLx8g-15" style="edgeStyle=orthogonalEdgeStyle;rounded=0;orthogonalLoop=1;jettySize=auto;html=1;exitX=0.75;exitY=0;exitDx=0;exitDy=0;entryX=0.5;entryY=1;entryDx=0;entryDy=0;endArrow=none;endFill=0;" parent="1" source="RuO9l1L-OgYIJ2cfLx8g-1" target="RuO9l1L-OgYIJ2cfLx8g-5" edge="1">
          <mxGeometry relative="1" as="geometry" />
        </mxCell>
        <mxCell id="RuO9l1L-OgYIJ2cfLx8g-16" style="edgeStyle=orthogonalEdgeStyle;rounded=0;orthogonalLoop=1;jettySize=auto;html=1;exitX=0.25;exitY=0;exitDx=0;exitDy=0;entryX=0.5;entryY=1;entryDx=0;entryDy=0;endArrow=none;endFill=0;" parent="1" source="RuO9l1L-OgYIJ2cfLx8g-1" target="RuO9l1L-OgYIJ2cfLx8g-2" edge="1">
          <mxGeometry relative="1" as="geometry" />
        </mxCell>
        <mxCell id="RuO9l1L-OgYIJ2cfLx8g-17" style="edgeStyle=orthogonalEdgeStyle;rounded=0;orthogonalLoop=1;jettySize=auto;html=1;exitX=0.877;exitY=0.008;exitDx=0;exitDy=0;entryX=0;entryY=0.5;entryDx=0;entryDy=0;endArrow=none;endFill=0;exitPerimeter=0;" parent="1" source="RuO9l1L-OgYIJ2cfLx8g-1" target="RuO9l1L-OgYIJ2cfLx8g-14" edge="1">
          <mxGeometry relative="1" as="geometry">
            <Array as="points">
              <mxPoint x="460" y="271" />
              <mxPoint x="460" y="230" />
              <mxPoint x="530" y="230" />
              <mxPoint x="530" y="180" />
            </Array>
          </mxGeometry>
        </mxCell>
        <mxCell id="RuO9l1L-OgYIJ2cfLx8g-26" style="edgeStyle=orthogonalEdgeStyle;rounded=0;orthogonalLoop=1;jettySize=auto;html=1;exitX=1;exitY=0.5;exitDx=0;exitDy=0;entryX=0;entryY=0.5;entryDx=0;entryDy=0;endArrow=none;endFill=0;" parent="1" source="RuO9l1L-OgYIJ2cfLx8g-1" target="RuO9l1L-OgYIJ2cfLx8g-24" edge="1">
          <mxGeometry relative="1" as="geometry" />
        </mxCell>
        <mxCell id="RuO9l1L-OgYIJ2cfLx8g-59" value="" style="edgeStyle=orthogonalEdgeStyle;rounded=0;orthogonalLoop=1;jettySize=auto;html=1;endArrow=none;endFill=0;" parent="1" source="RuO9l1L-OgYIJ2cfLx8g-1" target="RuO9l1L-OgYIJ2cfLx8g-58" edge="1">
          <mxGeometry relative="1" as="geometry" />
        </mxCell>
        <mxCell id="RuO9l1L-OgYIJ2cfLx8g-1" value="Menneske" style="rounded=0;whiteSpace=wrap;html=1;" parent="1" vertex="1">
          <mxGeometry x="350" y="270" width="120" height="60" as="geometry" />
        </mxCell>
        <mxCell id="RuO9l1L-OgYIJ2cfLx8g-12" style="edgeStyle=orthogonalEdgeStyle;rounded=0;orthogonalLoop=1;jettySize=auto;html=1;exitX=0.5;exitY=0;exitDx=0;exitDy=0;entryX=0.488;entryY=0.982;entryDx=0;entryDy=0;entryPerimeter=0;endArrow=none;endFill=0;" parent="1" source="RuO9l1L-OgYIJ2cfLx8g-2" target="RuO9l1L-OgYIJ2cfLx8g-4" edge="1">
          <mxGeometry relative="1" as="geometry" />
        </mxCell>
        <mxCell id="RuO9l1L-OgYIJ2cfLx8g-13" style="edgeStyle=orthogonalEdgeStyle;rounded=0;orthogonalLoop=1;jettySize=auto;html=1;exitX=0;exitY=0;exitDx=0;exitDy=0;endArrow=none;endFill=0;" parent="1" source="RuO9l1L-OgYIJ2cfLx8g-2" target="RuO9l1L-OgYIJ2cfLx8g-3" edge="1">
          <mxGeometry relative="1" as="geometry" />
        </mxCell>
        <mxCell id="RuO9l1L-OgYIJ2cfLx8g-2" value="Navn" style="ellipse;whiteSpace=wrap;html=1;" parent="1" vertex="1">
          <mxGeometry x="240" y="140" width="120" height="80" as="geometry" />
        </mxCell>
        <mxCell id="RuO9l1L-OgYIJ2cfLx8g-3" value="Fornavn" style="ellipse;whiteSpace=wrap;html=1;" parent="1" vertex="1">
          <mxGeometry x="110" y="20" width="120" height="80" as="geometry" />
        </mxCell>
        <mxCell id="RuO9l1L-OgYIJ2cfLx8g-4" value="Etternavn" style="ellipse;whiteSpace=wrap;html=1;" parent="1" vertex="1">
          <mxGeometry x="260" y="20" width="120" height="80" as="geometry" />
        </mxCell>
        <mxCell id="RuO9l1L-OgYIJ2cfLx8g-9" style="edgeStyle=orthogonalEdgeStyle;rounded=0;orthogonalLoop=1;jettySize=auto;html=1;exitX=1;exitY=0;exitDx=0;exitDy=0;entryX=0;entryY=1;entryDx=0;entryDy=0;endArrow=none;endFill=0;" parent="1" source="RuO9l1L-OgYIJ2cfLx8g-5" target="RuO9l1L-OgYIJ2cfLx8g-7" edge="1">
          <mxGeometry relative="1" as="geometry" />
        </mxCell>
        <mxCell id="RuO9l1L-OgYIJ2cfLx8g-11" style="edgeStyle=orthogonalEdgeStyle;rounded=0;orthogonalLoop=1;jettySize=auto;html=1;exitX=0.5;exitY=0;exitDx=0;exitDy=0;entryX=0.344;entryY=0.974;entryDx=0;entryDy=0;entryPerimeter=0;endArrow=none;endFill=0;" parent="1" source="RuO9l1L-OgYIJ2cfLx8g-5" target="RuO9l1L-OgYIJ2cfLx8g-6" edge="1">
          <mxGeometry relative="1" as="geometry" />
        </mxCell>
        <mxCell id="RuO9l1L-OgYIJ2cfLx8g-5" value="&lt;u&gt;Personnr&lt;/u&gt;" style="ellipse;whiteSpace=wrap;html=1;" parent="1" vertex="1">
          <mxGeometry x="380" y="140" width="120" height="80" as="geometry" />
        </mxCell>
        <mxCell id="RuO9l1L-OgYIJ2cfLx8g-6" value="fødselsdato" style="ellipse;whiteSpace=wrap;html=1;" parent="1" vertex="1">
          <mxGeometry x="400" y="20" width="120" height="80" as="geometry" />
        </mxCell>
        <mxCell id="RuO9l1L-OgYIJ2cfLx8g-7" value="fødselsnr" style="ellipse;whiteSpace=wrap;html=1;" parent="1" vertex="1">
          <mxGeometry x="540" y="20" width="120" height="80" as="geometry" />
        </mxCell>
        <mxCell id="RuO9l1L-OgYIJ2cfLx8g-14" value="Alder" style="ellipse;whiteSpace=wrap;html=1;dashed=1;" parent="1" vertex="1">
          <mxGeometry x="580" y="140" width="120" height="80" as="geometry" />
        </mxCell>
        <mxCell id="RuO9l1L-OgYIJ2cfLx8g-35" style="edgeStyle=orthogonalEdgeStyle;rounded=0;orthogonalLoop=1;jettySize=auto;html=1;exitX=0.25;exitY=0;exitDx=0;exitDy=0;endArrow=none;endFill=0;" parent="1" source="RuO9l1L-OgYIJ2cfLx8g-18" target="RuO9l1L-OgYIJ2cfLx8g-33" edge="1">
          <mxGeometry relative="1" as="geometry" />
        </mxCell>
        <mxCell id="RuO9l1L-OgYIJ2cfLx8g-36" style="edgeStyle=orthogonalEdgeStyle;rounded=0;orthogonalLoop=1;jettySize=auto;html=1;exitX=0.75;exitY=0;exitDx=0;exitDy=0;endArrow=none;endFill=0;" parent="1" source="RuO9l1L-OgYIJ2cfLx8g-18" target="RuO9l1L-OgYIJ2cfLx8g-34" edge="1">
          <mxGeometry relative="1" as="geometry" />
        </mxCell>
        <mxCell id="RuO9l1L-OgYIJ2cfLx8g-18" value="Boliger" style="rounded=0;whiteSpace=wrap;html=1;" parent="1" vertex="1">
          <mxGeometry x="910" y="270" width="120" height="60" as="geometry" />
        </mxCell>
        <mxCell id="RuO9l1L-OgYIJ2cfLx8g-27" style="edgeStyle=orthogonalEdgeStyle;rounded=0;orthogonalLoop=1;jettySize=auto;html=1;exitX=1;exitY=0.5;exitDx=0;exitDy=0;entryX=0;entryY=0.5;entryDx=0;entryDy=0;endArrow=none;endFill=0;" parent="1" source="RuO9l1L-OgYIJ2cfLx8g-24" target="RuO9l1L-OgYIJ2cfLx8g-18" edge="1">
          <mxGeometry relative="1" as="geometry" />
        </mxCell>
        <mxCell id="RuO9l1L-OgYIJ2cfLx8g-24" value="Bor_i" style="rhombus;whiteSpace=wrap;html=1;" parent="1" vertex="1">
          <mxGeometry x="670" y="260" width="80" height="80" as="geometry" />
        </mxCell>
        <mxCell id="RuO9l1L-OgYIJ2cfLx8g-30" value="1" style="text;html=1;align=center;verticalAlign=middle;resizable=0;points=[];autosize=1;strokeColor=none;fillColor=none;" parent="1" vertex="1">
          <mxGeometry x="735" y="278" width="30" height="30" as="geometry" />
        </mxCell>
        <mxCell id="RuO9l1L-OgYIJ2cfLx8g-31" value="M" style="text;html=1;align=center;verticalAlign=middle;resizable=0;points=[];autosize=1;strokeColor=none;fillColor=none;" parent="1" vertex="1">
          <mxGeometry x="650" y="278" width="30" height="30" as="geometry" />
        </mxCell>
        <mxCell id="RuO9l1L-OgYIJ2cfLx8g-33" value="&lt;u&gt;Adresse&lt;/u&gt;" style="ellipse;whiteSpace=wrap;html=1;" parent="1" vertex="1">
          <mxGeometry x="827" y="130" width="120" height="80" as="geometry" />
        </mxCell>
        <mxCell id="RuO9l1L-OgYIJ2cfLx8g-34" value="&lt;div&gt;Type&lt;/div&gt;" style="ellipse;whiteSpace=wrap;html=1;" parent="1" vertex="1">
          <mxGeometry x="1030" y="130" width="120" height="80" as="geometry" />
        </mxCell>
        <mxCell id="RuO9l1L-OgYIJ2cfLx8g-37" value="Inneholder" style="rhombus;whiteSpace=wrap;html=1;" parent="1" vertex="1">
          <mxGeometry x="1170" y="246" width="120" height="108" as="geometry" />
        </mxCell>
        <mxCell id="RuO9l1L-OgYIJ2cfLx8g-57" style="edgeStyle=orthogonalEdgeStyle;rounded=0;orthogonalLoop=1;jettySize=auto;html=1;exitX=0.75;exitY=0;exitDx=0;exitDy=0;entryX=0.5;entryY=1;entryDx=0;entryDy=0;endArrow=none;endFill=0;" parent="1" source="7yMVdNxwcbJNJOIwG-Q_-1" target="RuO9l1L-OgYIJ2cfLx8g-56" edge="1">
          <mxGeometry relative="1" as="geometry">
            <Array as="points">
              <mxPoint x="1495" y="245" />
              <mxPoint x="1570" y="245" />
            </Array>
          </mxGeometry>
        </mxCell>
        <mxCell id="RuO9l1L-OgYIJ2cfLx8g-43" value="Navn" style="ellipse;whiteSpace=wrap;html=1;perimeterSpacing=0;strokeColor=default;gradientColor=none;fillColor=default;" parent="1" vertex="1">
          <mxGeometry x="1360" y="130" width="120" height="80" as="geometry" />
        </mxCell>
        <mxCell id="RuO9l1L-OgYIJ2cfLx8g-47" style="edgeStyle=orthogonalEdgeStyle;rounded=0;orthogonalLoop=1;jettySize=auto;html=1;exitX=0.5;exitY=0;exitDx=0;exitDy=0;entryX=0.602;entryY=0.978;entryDx=0;entryDy=0;entryPerimeter=0;endArrow=none;endFill=0;" parent="1" source="7yMVdNxwcbJNJOIwG-Q_-1" target="RuO9l1L-OgYIJ2cfLx8g-43" edge="1">
          <mxGeometry relative="1" as="geometry">
            <mxPoint x="1470.58" y="268.18000000000006" as="sourcePoint" />
            <mxPoint x="1452.15" y="214.64" as="targetPoint" />
          </mxGeometry>
        </mxCell>
        <mxCell id="RuO9l1L-OgYIJ2cfLx8g-48" value="" style="endArrow=none;dashed=1;html=1;strokeWidth=2;rounded=0;" parent="1" edge="1">
          <mxGeometry width="50" height="50" relative="1" as="geometry">
            <mxPoint x="1400" y="179.82" as="sourcePoint" />
            <mxPoint x="1440" y="179.82" as="targetPoint" />
          </mxGeometry>
        </mxCell>
        <mxCell id="RuO9l1L-OgYIJ2cfLx8g-53" value="N" style="text;html=1;align=center;verticalAlign=middle;resizable=0;points=[];autosize=1;strokeColor=none;fillColor=none;" parent="1" vertex="1">
          <mxGeometry x="1280" y="278" width="30" height="30" as="geometry" />
        </mxCell>
        <mxCell id="RuO9l1L-OgYIJ2cfLx8g-55" value="" style="rhombus;whiteSpace=wrap;html=1;fillColor=none;" parent="1" vertex="1">
          <mxGeometry x="1180" y="250" width="100" height="100" as="geometry" />
        </mxCell>
        <mxCell id="RuO9l1L-OgYIJ2cfLx8g-56" value="Bruksområder" style="ellipse;whiteSpace=wrap;html=1;" parent="1" vertex="1">
          <mxGeometry x="1510" y="130" width="120" height="80" as="geometry" />
        </mxCell>
        <mxCell id="RuO9l1L-OgYIJ2cfLx8g-64" style="edgeStyle=orthogonalEdgeStyle;rounded=0;orthogonalLoop=1;jettySize=auto;html=1;exitX=0.5;exitY=1;exitDx=0;exitDy=0;entryX=0.5;entryY=0;entryDx=0;entryDy=0;endArrow=none;endFill=0;" parent="1" source="RuO9l1L-OgYIJ2cfLx8g-58" target="RuO9l1L-OgYIJ2cfLx8g-63" edge="1">
          <mxGeometry relative="1" as="geometry" />
        </mxCell>
        <mxCell id="RuO9l1L-OgYIJ2cfLx8g-67" value="" style="edgeStyle=orthogonalEdgeStyle;rounded=0;orthogonalLoop=1;jettySize=auto;html=1;" parent="1" source="RuO9l1L-OgYIJ2cfLx8g-58" target="RuO9l1L-OgYIJ2cfLx8g-66" edge="1">
          <mxGeometry relative="1" as="geometry" />
        </mxCell>
        <mxCell id="RuO9l1L-OgYIJ2cfLx8g-58" value="Utfører" style="rhombus;whiteSpace=wrap;html=1;rounded=0;" parent="1" vertex="1">
          <mxGeometry x="355" y="400" width="110" height="100" as="geometry" />
        </mxCell>
        <mxCell id="RuO9l1L-OgYIJ2cfLx8g-62" value="" style="endArrow=none;html=1;rounded=0;exitX=1.009;exitY=0.56;exitDx=0;exitDy=0;exitPerimeter=0;entryX=0.033;entryY=0.536;entryDx=0;entryDy=0;entryPerimeter=0;" parent="1" source="RuO9l1L-OgYIJ2cfLx8g-1" target="RuO9l1L-OgYIJ2cfLx8g-24" edge="1">
          <mxGeometry width="50" height="50" relative="1" as="geometry">
            <mxPoint x="550" y="340" as="sourcePoint" />
            <mxPoint x="600" y="290" as="targetPoint" />
          </mxGeometry>
        </mxCell>
        <mxCell id="RuO9l1L-OgYIJ2cfLx8g-74" style="edgeStyle=orthogonalEdgeStyle;rounded=0;orthogonalLoop=1;jettySize=auto;html=1;exitX=1;exitY=0.5;exitDx=0;exitDy=0;entryX=0;entryY=0.5;entryDx=0;entryDy=0;endArrow=none;endFill=0;" parent="1" source="RuO9l1L-OgYIJ2cfLx8g-63" target="RuO9l1L-OgYIJ2cfLx8g-73" edge="1">
          <mxGeometry relative="1" as="geometry" />
        </mxCell>
        <mxCell id="RuO9l1L-OgYIJ2cfLx8g-76" style="edgeStyle=orthogonalEdgeStyle;rounded=0;orthogonalLoop=1;jettySize=auto;html=1;exitX=1;exitY=0.75;exitDx=0;exitDy=0;entryX=0;entryY=0.5;entryDx=0;entryDy=0;endArrow=none;endFill=0;" parent="1" source="RuO9l1L-OgYIJ2cfLx8g-63" target="RuO9l1L-OgYIJ2cfLx8g-75" edge="1">
          <mxGeometry relative="1" as="geometry" />
        </mxCell>
        <mxCell id="RuO9l1L-OgYIJ2cfLx8g-63" value="Yrker" style="rounded=0;whiteSpace=wrap;html=1;" parent="1" vertex="1">
          <mxGeometry x="350" y="620" width="120" height="60" as="geometry" />
        </mxCell>
        <mxCell id="RuO9l1L-OgYIJ2cfLx8g-69" value="" style="edgeStyle=orthogonalEdgeStyle;rounded=0;orthogonalLoop=1;jettySize=auto;html=1;endArrow=none;endFill=0;" parent="1" source="RuO9l1L-OgYIJ2cfLx8g-66" target="RuO9l1L-OgYIJ2cfLx8g-68" edge="1">
          <mxGeometry relative="1" as="geometry" />
        </mxCell>
        <mxCell id="RuO9l1L-OgYIJ2cfLx8g-72" value="" style="edgeStyle=orthogonalEdgeStyle;rounded=0;orthogonalLoop=1;jettySize=auto;html=1;endArrow=none;endFill=0;" parent="1" source="RuO9l1L-OgYIJ2cfLx8g-66" target="RuO9l1L-OgYIJ2cfLx8g-71" edge="1">
          <mxGeometry relative="1" as="geometry">
            <Array as="points">
              <mxPoint x="630" y="510" />
              <mxPoint x="840" y="510" />
            </Array>
          </mxGeometry>
        </mxCell>
        <mxCell id="RuO9l1L-OgYIJ2cfLx8g-66" value="Periode" style="ellipse;whiteSpace=wrap;html=1;rounded=0;" parent="1" vertex="1">
          <mxGeometry x="560" y="410" width="140" height="80" as="geometry" />
        </mxCell>
        <mxCell id="RuO9l1L-OgYIJ2cfLx8g-68" value="Fra_Dato" style="ellipse;whiteSpace=wrap;html=1;rounded=0;" parent="1" vertex="1">
          <mxGeometry x="780" y="410" width="140" height="80" as="geometry" />
        </mxCell>
        <mxCell id="RuO9l1L-OgYIJ2cfLx8g-71" value="Til_Dato" style="ellipse;whiteSpace=wrap;html=1;rounded=0;" parent="1" vertex="1">
          <mxGeometry x="780" y="530" width="140" height="80" as="geometry" />
        </mxCell>
        <mxCell id="RuO9l1L-OgYIJ2cfLx8g-73" value="&lt;u&gt;Tittel&lt;/u&gt;" style="ellipse;whiteSpace=wrap;html=1;" parent="1" vertex="1">
          <mxGeometry x="570" y="610" width="120" height="80" as="geometry" />
        </mxCell>
        <mxCell id="RuO9l1L-OgYIJ2cfLx8g-75" value="Lønn" style="ellipse;whiteSpace=wrap;html=1;" parent="1" vertex="1">
          <mxGeometry x="570" y="710" width="120" height="80" as="geometry" />
        </mxCell>
        <mxCell id="RuO9l1L-OgYIJ2cfLx8g-77" value="N" style="text;html=1;align=center;verticalAlign=middle;resizable=0;points=[];autosize=1;strokeColor=none;fillColor=none;" parent="1" vertex="1">
          <mxGeometry x="405" y="378" width="30" height="30" as="geometry" />
        </mxCell>
        <mxCell id="RuO9l1L-OgYIJ2cfLx8g-78" value="M" style="text;html=1;align=center;verticalAlign=middle;resizable=0;points=[];autosize=1;strokeColor=none;fillColor=none;" parent="1" vertex="1">
          <mxGeometry x="405" y="498" width="30" height="30" as="geometry" />
        </mxCell>
        <mxCell id="7yMVdNxwcbJNJOIwG-Q_-1" value="Rom" style="shape=ext;margin=3;double=1;whiteSpace=wrap;html=1;align=center;" vertex="1" parent="1">
          <mxGeometry x="1420" y="280" width="100" height="40" as="geometry" />
        </mxCell>
        <mxCell id="7yMVdNxwcbJNJOIwG-Q_-2" value="" style="shape=link;html=1;rounded=0;entryX=0;entryY=0.5;entryDx=0;entryDy=0;" edge="1" parent="1" source="RuO9l1L-OgYIJ2cfLx8g-37" target="7yMVdNxwcbJNJOIwG-Q_-1">
          <mxGeometry relative="1" as="geometry">
            <mxPoint x="1320" y="310" as="sourcePoint" />
            <mxPoint x="1440" y="380" as="targetPoint" />
          </mxGeometry>
        </mxCell>
        <mxCell id="7yMVdNxwcbJNJOIwG-Q_-3" value="" style="resizable=0;html=1;whiteSpace=wrap;align=right;verticalAlign=bottom;" connectable="0" vertex="1" parent="7yMVdNxwcbJNJOIwG-Q_-2">
          <mxGeometry x="1" relative="1" as="geometry" />
        </mxCell>
        <mxCell id="7yMVdNxwcbJNJOIwG-Q_-5" value="" style="shape=link;html=1;rounded=0;entryX=0;entryY=0.5;entryDx=0;entryDy=0;exitX=1;exitY=0.5;exitDx=0;exitDy=0;" edge="1" parent="1" source="RuO9l1L-OgYIJ2cfLx8g-18" target="RuO9l1L-OgYIJ2cfLx8g-37">
          <mxGeometry relative="1" as="geometry">
            <mxPoint x="1030" y="380" as="sourcePoint" />
            <mxPoint x="1190" y="380" as="targetPoint" />
          </mxGeometry>
        </mxCell>
        <mxCell id="7yMVdNxwcbJNJOIwG-Q_-6" value="1" style="resizable=0;html=1;whiteSpace=wrap;align=right;verticalAlign=bottom;" connectable="0" vertex="1" parent="7yMVdNxwcbJNJOIwG-Q_-5">
          <mxGeometry x="1" relative="1" as="geometry" />
        </mxCell>
      </root>
    </mxGraphModel>
  </diagram>
</mxfile>
